<?xml version="1.0" standalone="no"?>
<!DOCTYPE svg PUBLIC "-//W3C//DTD SVG 20010904//EN"
 "http://www.w3.org/TR/2001/REC-SVG-20010904/DTD/svg10.dtd">
<svg version="1.0" xmlns="http://www.w3.org/2000/svg"
 width="512.000000pt" height="512.000000pt" viewBox="0 0 512.000000 512.000000"
 preserveAspectRatio="xMidYMid meet">

<g transform="translate(0.000000,512.000000) scale(0.100000,-0.100000)"
fill="#000000" stroke="none">
<path d="M1136 5110 c-286 -36 -534 -153 -735 -345 -193 -185 -317 -407 -372
-665 -31 -148 -31 -372 0 -520 55 -258 179 -480 372 -665 172 -165 382 -276
620 -326 147 -31 371 -31 518 0 238 50 448 161 620 326 193 185 317 407 372
665 17 83 22 138 22 260 0 122 -5 177 -22 260 -55 258 -179 480 -372 665 -172
165 -386 277 -616 324 -117 24 -306 34 -407 21z m279 -161 c679 -83 1129 -761
939 -1415 -171 -593 -793 -939 -1380 -768 -593 171 -939 793 -768 1380 153
530 665 870 1209 803z"/>
<path d="M1109 4785 c-107 -20 -225 -64 -321 -121 -112 -66 -266 -220 -332
-332 -180 -303 -180 -681 0 -984 66 -112 220 -266 332 -332 303 -180 681 -180
984 0 112 66 266 220 332 332 180 303 180 681 0 984 -66 112 -220 266 -332
332 -197 117 -440 161 -663 121z m300 -156 c382 -62 671 -401 671 -789 0 -438
-362 -800 -800 -800 -438 0 -800 362 -800 800 0 490 445 868 929 789z"/>
<path d="M1244 4468 c-27 -13 -44 -49 -44 -92 0 -34 -13 -46 -48 -46 -31 0
-137 -57 -169 -91 -46 -49 -66 -103 -66 -179 0 -155 93 -235 340 -296 180 -45
225 -75 225 -149 0 -68 -59 -105 -170 -105 -85 0 -156 20 -248 71 -39 21 -83
39 -96 39 -57 0 -100 -66 -78 -119 18 -44 140 -110 250 -135 l55 -13 6 -49 c8
-66 15 -80 50 -94 60 -25 109 20 109 99 0 38 1 39 43 45 52 8 150 53 192 88
77 66 105 214 58 304 -46 87 -125 133 -320 185 -178 47 -223 75 -223 139 0
115 160 146 342 66 91 -41 116 -42 157 -9 33 28 37 73 10 107 -27 34 -120 78
-201 96 -56 13 -58 14 -58 46 0 45 -17 80 -47 93 -29 13 -41 13 -69 -1z"/>
<path d="M2923 4389 c-33 -17 -48 -62 -33 -98 15 -37 45 -48 145 -54 541 -34
988 -467 1041 -1012 l6 -70 -104 103 c-113 110 -133 119 -181 82 -32 -26 -41
-63 -23 -98 23 -44 338 -350 368 -357 15 -4 35 -4 45 -1 10 3 98 86 196 184
186 188 195 201 161 250 -22 32 -58 44 -91 31 -16 -5 -69 -51 -120 -101 l-91
-91 -7 59 c-34 323 -146 571 -354 787 -184 191 -408 316 -656 366 -127 25
-272 35 -302 20z"/>
<path d="M3696 2550 c-286 -36 -534 -153 -735 -345 -193 -185 -317 -407 -372
-665 -31 -148 -31 -372 0 -520 55 -258 179 -480 372 -665 172 -165 382 -276
620 -326 147 -31 371 -31 518 0 238 50 448 161 620 326 193 185 317 407 372
665 17 83 22 138 22 260 0 122 -5 177 -22 260 -55 258 -179 480 -372 665 -172
165 -386 277 -616 324 -117 24 -306 34 -407 21z m271 -161 c603 -67 1047 -617
984 -1219 -56 -534 -467 -945 -1001 -1001 -696 -73 -1294 525 -1221 1221 60
567 521 993 1094 1009 26 0 91 -4 144 -10z"/>
<path d="M3650 2220 c-202 -43 -337 -117 -485 -265 -189 -189 -285 -416 -285
-675 0 -259 96 -486 285 -675 189 -189 416 -285 675 -285 259 0 486 96 675
285 68 68 116 127 149 183 180 304 180 680 0 984 -66 112 -220 266 -332 332
-204 121 -459 164 -682 116z m380 -163 c207 -57 368 -172 481 -345 88 -134
124 -258 124 -432 0 -226 -75 -408 -231 -564 -156 -156 -338 -231 -564 -231
-174 0 -298 36 -432 124 -315 207 -444 588 -319 943 93 261 317 453 601 514
80 17 262 12 340 -9z"/>
<path d="M3890 1751 c-46 -14 -105 -49 -131 -78 -53 -57 -72 -110 -77 -215
l-4 -98 -44 0 c-57 0 -90 -16 -105 -51 -9 -22 -9 -36 0 -58 15 -35 48 -51 106
-51 l45 0 0 -120 0 -120 -45 0 c-58 0 -91 -16 -106 -51 -15 -37 2 -82 37 -98
34 -15 594 -15 628 0 55 26 55 112 0 138 -15 7 -88 11 -189 11 l-165 0 0 120
0 120 45 0 c58 0 91 16 106 51 9 22 9 36 0 58 -15 35 -48 51 -107 51 l-46 0 3
85 c4 80 6 86 37 117 29 29 38 33 88 33 52 0 59 -3 88 -36 l31 -36 64 22 c36
12 66 26 68 31 2 5 -10 31 -27 57 -60 96 -197 149 -300 118z"/>
<path d="M748 2063 c-98 -98 -182 -189 -185 -202 -8 -31 15 -72 49 -89 41 -19
73 -1 175 100 l91 91 7 -59 c34 -323 146 -571 354 -787 137 -142 277 -236 456
-306 162 -64 431 -108 494 -81 39 16 58 60 41 99 -15 37 -45 48 -145 54 -541
34 -988 467 -1041 1012 l-6 70 104 -102 c113 -111 133 -120 181 -83 32 26 41
63 23 98 -17 32 -321 335 -353 351 -49 25 -62 16 -245 -166z"/>
</g>
</svg>
